<svg height="512pt" viewBox="0 -107 512.00647 512" width="512pt" xmlns="http://www.w3.org/2000/svg"><path d="m507.828125 186.222656c0-.070312-.085937-.113281-.101563-.179687-7.785156-23.628907-25.453124-42.707031-48.410156-52.285157-6.675781-33.824218-39.476562-129.050781-117.472656-133.7343745-3.378906-.2343755-6.570312 1.5781245-8.097656 4.6015625-1.546875 3.003906-1.175782 6.636719.949218 9.265625 12.085938 15.574219 22.21875 32.574219 30.171876 50.609375l-14.503907 4.472656-34.082031-22.671875c-4.207031-2.878906-9.1875-4.414062-14.285156-4.394531h-54.527344c-4.714844 0-8.535156 3.820312-8.535156 8.53125 0 4.714844 3.820312 8.535156 8.535156 8.535156h54.527344c1.691406.003906 3.34375.515625 4.742187 1.46875l22.582031 15.015625-57.285156 17.648438c-1.195312.230469-2.347656.648437-3.414062 1.238281l-27.308594 13.601562c-2 1.019532-4.324219 1.183594-6.449219.460938l-12.152343-4.113281c-2.148438-.71875-3.933594-2.25-4.964844-4.265625l-2.355469-4.695313c-2.863281-5.847656-7.871094-10.363281-13.976563-12.613281l-61.363281-22.96875c-.769531-.335938-1.570312-.589844-2.390625-.769531l-99.738281-21.332031c-5.667969-1.292969-11.496094 1.394531-14.1875 6.546874-2.695313 5.152344-1.578125 11.472657 2.71875 15.390626 2.296875 2.722656 6.5625 7.679687 12.039063 13.601562-2.816407 3.121094-4.375 7.179688-4.359376 11.382812v17.070313c0 9.425781 7.640626 17.066406 17.066407 17.066406h51.199219c26.21875.410157 51.03125 11.929688 68.269531 31.691407 8.730469 10.570312 14.71875 23.132812 17.433593 36.574218h-21.394531c-.085937-.257812-.136719-.496094-.214843-.75-11.414063-35.164062-44.171876-58.976562-81.140626-58.984375-36.964843-.011719-69.738281 23.785157-81.171874 58.941407-2.785157 8.519531-4.1992192 17.429687-4.179688 26.390624.0625 27.289063 13.117188 52.917969 35.15625 69.011719 29.910156 21.757813 70.4375 21.757813 100.34375 0 14.789062-10.757812 25.742188-25.972656 31.25-43.410156h19.976562l-6.671874 13.269531c-1.320313 2.652344-1.167969 5.796875.398437 8.308594 1.5625 2.511719 4.320313 4.035156 7.28125 4.023438h170.828125c4.980469 6.605468 10.886719 12.457031 17.535156 17.382812.164063.125.238282.3125.410156.433594.171876.121094.394532.179687.582032.296875 29.601562 21.355469 69.550781 21.355469 99.15625 0 .1875-.117188.402344-.160157.578125-.296875.179687-.136719.25-.308594.410156-.433594 29.601563-21.671875 41.945313-59.898438 30.609375-94.789062zm-19.457031-2.664062-16.332032 5.28125c-7.425781-14.179688-21.054687-24.070313-36.839843-26.734375v-17.210938c23.164062 2.964844 43.214843 17.542969 53.171875 38.664063zm-41.617188 56.652344c-12.03125 8.4375-28.054687 8.460937-40.105468.050781-6.570313-4.777344-11.226563-11.730469-13.140626-19.625l18.558594 12.910156c4.253906 3.003906 9.332032 4.617187 14.539063 4.625 1.53125 0 3.054687-.136719 4.558593-.410156 6.710938-1.183594 12.667969-5.015625 16.527344-10.632813 3.875-5.5625 5.371094-12.4375 4.167969-19.109375-1.207031-6.667969-5.015625-12.582031-10.59375-16.4375l-18.488281-12.878906c1.289062-.160156 2.589844-.25 3.890625-.265625 14.726562-.007812 27.800781 9.433594 32.425781 23.417969 1.097656 3.464843 1.675781 7.078125 1.707031 10.714843.027344 10.9375-5.199219 21.21875-14.046875 27.640626zm-88.355468-27.640626c.003906-5.089843.574218-10.164062 1.707031-15.128906l6.128906 4.269532c.078125.039062.117187.109374.1875.152343l.128906.066407 9.085938 6.324218c-.117188 1.417969-.210938 2.851563-.210938 4.316406-.027343 13.398438 5.246094 26.257813 14.667969 35.78125l-10.128906 13.917969c-13.757813-12.867187-21.566406-30.859375-21.566406-49.699219zm-34.601563-7.320312c-2.132813-.351562-4.042969-1.515625-5.332031-3.25l-17.238282-23.101562c-4.113281-5.394532-10.179687-8.960938-16.894531-9.929688l-42.597656-6.070312 3.949219-11.84375 20.386718-6.824219c.386719-.128907.777344-.230469 1.175782-.308594l91.308594-16.597656 38.09375 5.445312c-31.722657 11.960938-53.351563 41.5625-55.109376 75.417969zm66.066406-7.917969-.230469-.121093-23.382812-16.273438c2.667969-5.03125 5.949219-9.710938 9.773438-13.933594l55.464843 38.621094c1.871094 1.277344 3.152344 3.253906 3.550781 5.484375.402344 2.230469-.113281 4.53125-1.425781 6.378906-1.285156 1.851563-3.25 3.113281-5.46875 3.511719s-4.503906-.101562-6.351562-1.386719zm15.0625-31.054687-15.550781-10.808594c8.65625-5.675781 18.492188-9.292969 28.757812-10.574219v17.269531c-4.570312.761719-9.015624 2.144532-13.207031 4.113282zm13.011719-93.207032c9.890625 17.410157 17.480469 36.03125 22.578125 55.398438-2.140625-.351562-4.265625-.667969-6.484375-.855469l-7.925781-5.316406c-3.195313-2.121094-6.820313-3.507813-10.617188-4.050781l-28.929687-4.140625c4.570312-15.429688 3.726562-31.957031-2.394532-46.839844-5.910156-16.394531-13.820312-31.996094-23.546874-46.453125 22.171874 7.304688 41.386718 24.804688 57.320312 52.257812zm-366.738281 28.570313v-15.414063c5.410156 5.292969 11.246093 10.609376 17.203125 15.414063zm58.882812.390625c-.636719-.210938-1.296875-.34375-1.964843-.390625h-5.71875c-8.0625 0-25.597657-13.9375-42.828126-31.207031-.226562-.261719-.472656-.503906-.734374-.726563-4.050782-4.097656-8.070313-8.355469-11.945313-12.664062l87.253906 18.707031 61.347657 22.960938c2.039062.734374 3.710937 2.238281 4.65625 4.191406l2.425781 4.835937c3.054687 6.027344 8.363281 10.601563 14.769531 12.734375l12.152344 4.113282c6.445312 2.191406 13.5 1.683593 19.566406-1.402344l27.765625-13.863282c-.226563.144532-.605469.324219-.59375.324219l94.113281-28.964843c3.339844 10.125 2.886719 21.113281-1.28125 30.925781l-9.386718-1.347657c-.910157-.128906-1.835938-.109374-2.738282.050782l-92.765625 16.851562c-1.183593.222656-2.347656.519532-3.492187.898438l-20.402344 6.824218c-5.085938 1.714844-9.082031 5.707032-10.792969 10.796876l-4.121093 12.382812c-1.550782 4.640625-1.03125 9.726562 1.421874 13.960938 1.503907 2.542968 3.648438 4.644531 6.222657 6.101562.132812.085938.273437.164062.417969.238281 1.488281.851563 3.09375 1.46875 4.769531 1.832031l28.339843 5.667969 6.09375 18.277344c.289063.871094.4375 1.78125.433594 2.695313v5.734374c0 4.714844-3.820312 8.535157-8.53125 8.535157h-23.894531c-1.6875 0-3.371094.167969-5.027344.503906l-29.183593 5.835937c4.890624-43.859374-9.234376-71.867187-22.679688-87.976562-18.644531-21.726562-45.128906-35.1875-73.667969-37.4375zm79.792969 119.074219h-104.542969c-4.710937 0-8.53125-3.820313-8.53125-8.535157-.003906-2.296874.941407-4.496093 2.609375-6.074218 1.558594-1.59375 3.695313-2.480469 5.921875-2.457032h104.84375c.273438 5.6875.175781 11.390626-.300781 17.066407zm-84.480469 19.105469c-12.03125 8.4375-28.054687 8.460937-40.105469.050781-8.867187-6.433594-14.109374-16.734375-14.089843-27.691407.019531-3.574218.5625-7.128906 1.613281-10.546874 3.546875-10.945313 12.371094-19.367188 23.472656-22.398438 11.097656-3.035156 22.980469-.273438 31.601563 7.347656h-22.554688c-14.105469.078125-25.519531 11.492188-25.597656 25.597656 0 14.140626 11.460937 25.601563 25.597656 25.601563h22.496094c-.785156.699219-1.554687 1.410156-2.40625 2.039063zm43-53.238282h-18.773437c-7.65625-13.15625-20.75-22.242187-35.753906-24.816406v-17.175781c24.464843 3.027343 45.351562 19.113281 54.527343 41.992187zm-71.59375-41.984375v17.117188c-15.777343 2.671875-29.394531 12.566406-36.8125 26.742187l-16.300781-5.289062c9.878906-21.144532 29.945312-35.71875 53.113281-38.570313zm-59.734375 67.582031c.035156-4.296874.480469-8.582031 1.332032-12.796874l16.316406 5.28125c-.375 2.488281-.570313 5-.582032 7.515624-.023437 13.398438 5.25 26.257813 14.667969 35.78125l-10.152343 13.960938c-13.726563-12.910156-21.53125-30.898438-21.582032-49.742188zm35.457032 59.675782 10.050781-13.808594c14.335937 7.125 31.179687 7.125 45.519531 0l10.050781 13.824219c-20.503906 10.957031-45.125 10.949219-65.621093-.015625zm79.480468-9.957032-10.148437-13.953124c3.003906-3.058594 5.625-6.46875 7.800781-10.164063h18.960938c-3.730469 9.144531-9.398438 17.371094-16.613282 24.117187zm69.492188-15.582031.496094-.972656 36.941406-7.390625c.5625-.117188 1.132812-.171875 1.707031-.171875h23.894531c14.136719 0 25.597656-11.460937 25.597656-25.601563v-5.757812c.003907-2.753906-.441406-5.492188-1.3125-8.105469l-3.933593-11.785156c1.039062.558594 1.953125 1.328125 2.679687 2.261719l17.269532 23.039062c3.921874 5.261719 9.734374 8.792969 16.214843 9.839844l21.332031 3.566406c1.121094 7.261719 3.179688 14.347656 6.128907 21.078125zm192.285156 25.648438 10.128906-13.917969c14.335938 7.117188 31.175782 7.117188 45.515625 0l10.128907 13.929688c-20.464844 11.308593-45.308594 11.308593-65.773438 0zm79.546875-10.085938-10.128906-13.917969c11.292969-11.371093 16.519531-27.429687 14.078125-43.273437l16.410156-5.316406c4.464844 22.957031-3.230469 46.589843-20.359375 62.507812zm0 0"/></svg>