<svg height="455pt" viewBox="0 -65 455.99959 455" width="455pt" xmlns="http://www.w3.org/2000/svg"><path d="m274.960938 21.238281 130.9375 263.273438 2.113281 33.78125c.230469 3.6875 3.285156 6.558593 6.980469 6.5625.148437 0 .300781 0 .441406-.015625 3.859375-.238282 6.789062-3.5625 6.550781-7.421875l-2.382813-38.226563 21.375-73.132812zm0 0"/><path d="m249.007812.5c-1.859374 4.757812-4.027343 9.394531-6.484374 13.875-4.828126 9.230469-9 17.199219-8.648438 29.417969.339844 11.808593 4.53125 17.359375 9.386719 23.785156 5.507812 7.285156 11.746093 15.542969 12.210937 31.820313.464844 16.28125-5.292968 24.878906-10.371094 32.46875-4.484374 6.691406-8.351562 12.46875-8.015624 24.277343.113281 3.867188-2.933594 7.089844-6.800782 7.199219-.066406 0-.136718 0-.199218 0-3.785157-.003906-6.882813-3.015625-6.992188-6.800781-.464844-16.277344 5.292969-24.878907 10.375-32.46875 4.480469-6.6875 8.347656-12.46875 8.011719-24.277344-.335938-11.808594-4.53125-17.355469-9.386719-23.78125-5.503906-7.285156-11.746094-15.542969-12.210938-31.824219-.417968-14.726562 4.441407-25.132812 9.148438-34.214844l-204.972656 263.230469 379.53125 38.09375zm0 0"/><path d="m11.867188 285.800781c3.835937-.476562 6.558593-3.976562 6.078124-7.8125l-4-32c-.480468-3.835937-3.976562-6.558593-7.8125-6.078125-3.835937.480469-6.558593 3.976563-6.0781245 7.8125l4.0000005 32c.226562 1.84375 1.179687 3.519532 2.644531 4.660156 1.46875 1.140626 3.328125 1.652344 5.167969 1.417969zm0 0"/><path d="m451.960938 167.105469c-.238282-2.515625-1.808594-4.707031-4.109376-5.738281-2.304687-1.03125-4.988281-.742188-7.019531.753906-2.03125 1.5-3.097656 3.976562-2.789062 6.484375l4 37c.382812 3.550781 3.375 6.242187 6.949219 6.246093.253906 0 .507812-.015624.761718-.039062 3.839844-.417969 6.621094-3.871094 6.207032-7.714844zm0 0"/></svg>