<?xml version="1.0" encoding="iso-8859-1"?>
<!-- Generator: Adobe Illustrator 19.0.0, SVG Export Plug-In . SVG Version: 6.00 Build 0)  -->
<svg version="1.1" id="Capa_1" xmlns="http://www.w3.org/2000/svg" xmlns:xlink="http://www.w3.org/1999/xlink" x="0px" y="0px"
	 viewBox="0 0 512 512" style="enable-background:new 0 0 512 512;" xml:space="preserve">
<g>
	<g>
		<path d="M500.892,277.053h-5.266v-20.612c0.001,0,0.002,0,0.003,0c9.253-1.383,16.372-9.384,16.372-19.008
			c0-10.597-8.622-19.219-19.219-19.219h-5.01l-35.661-46.776c6.256-10.829,1.395-24.771-10.289-29.368V77.958
			c0-4.154-3.366-7.519-7.519-7.519c-4.154,0-7.519,3.366-7.519,7.519v64.113c-7.619,2.998-13.033,10.447-13.033,19.119
			c0,3.737,1.002,7.234,2.744,10.25l-35.66,46.775h-5.682c-10.597,0-19.219,8.622-19.219,19.219c0,9.514,6.948,17.434,16.041,18.948
			c0.001,0,0.002,0,0.004,0v20.673h-6.972c-3.429,0-6.436,2.336-7.288,5.654c-0.01,0.06-1.514,5.835-5.514,15.058
			c-1.654,3.81,0.09,8.231,3.9,9.885c3.81,1.654,8.241-0.1,9.895-3.91c2.065-4.762,3.539-8.722,4.542-11.65h29.525
			c-1.514,7.379-6.697,27.52-21.464,50.568c-26.555,41.473-68.149,68.274-114.872,83.863H248.27
			c-1.023-0.331-2.035-0.672-3.038-1.023c43.993-22.057,81.043-53.912,106.18-94.179c2.206-3.519,1.133-8.161-2.386-10.356
			c-3.529-2.206-8.161-1.133-10.366,2.396c-14.908,23.861-40.413,54.137-82.63,79.131c-39.57-23.45-64.243-51.37-79.011-73.436
			c-2.306-3.459-6.978-4.381-10.426-2.065c-3.449,2.306-4.381,6.978-2.065,10.426c14.747,22.046,38.758,49.576,76.334,73.436
			c-4.822,2.466-9.835,4.872-15.048,7.178c-66.818-28.781-104.551-80.296-113.879-125.94h29.525
			c1.434,4.191,3.85,10.517,7.579,18.306c1.795,3.74,6.296,5.313,10.035,3.519c3.74-1.795,5.324-6.286,3.529-10.025
			c-6.116-12.742-8.301-21.104-8.321-21.174c-0.842-3.328-3.84-5.664-7.289-5.664h-6.972v-20.672c0.001,0,0.002,0,0.004,0
			c9.093-1.514,16.041-9.434,16.041-18.948c0-10.597-8.622-19.219-19.219-19.219h-5.682l-35.66-46.775
			c6.257-10.83,1.395-24.772-10.289-29.369c0,0,0,0-0.001,0V77.958c0-4.154-3.366-7.519-7.519-7.519
			c-4.154,0-7.519,3.366-7.519,7.519v64.113c-11.685,4.598-16.544,18.539-10.289,29.368l-35.661,46.776h-5.009
			C8.622,218.214,0,226.836,0,237.433c0,9.624,7.118,17.625,16.372,19.008c0.001,0,0.002,0,0.003,0v20.612h-5.266
			c-4.151,0-7.519,3.359-7.519,7.519c0,86.56,70.429,156.989,156.999,156.989c72.072,0,127.571,0,190.824,0
			c37.585,0,73.948-13.494,102.39-37.987c3.148-2.707,3.499-7.449,0.792-10.597s-7.459-3.509-10.607-0.792
			c-21.795,18.758-48.734,30.387-77.126,33.495c44.122-22.617,67.742-52.563,80.224-75.903
			c14.697-27.48,17.133-50.939,17.545-57.686h28.542c-1.484,29.014-11.62,56.333-29.535,79.422
			c-3.848,4.954-0.251,12.121,5.935,12.121c2.246,0,4.461-0.992,5.945-2.907c21.515-27.73,32.893-60.975,32.893-96.154
			C508.411,280.412,505.042,277.053,500.892,277.053z M124.983,277.053H118.3v-20.402h6.683V277.053z M77.696,155.678
			c3.058,0,5.515,2.489,5.515,5.511c0,3.048-2.476,5.514-5.514,5.514s-5.514-2.466-5.514-5.514
			C72.183,158.19,74.619,155.678,77.696,155.678z M71.641,180.828h0.001c3.936,1.216,8.172,1.217,12.111,0l28.501,37.385H43.139
			L71.641,180.828z M15.038,237.433c0-2.306,1.875-4.181,4.181-4.181h117.629c2.306,0,4.181,1.875,4.181,4.181
			s-1.875,4.181-4.181,4.181H19.219C16.913,241.613,15.038,239.739,15.038,237.433z M103.262,256.652v20.402h-6.684v-20.402H103.262
			z M81.54,256.652v20.402h-6.684v-20.402H81.54z M59.818,256.652v20.402c-0.161,0-6.934,0-6.683,0v-20.402H59.818z M38.097,256.652
			v20.402h-6.684v-20.402H38.097z M18.828,292.092H47.37c0.411,6.747,2.847,30.207,17.544,57.686
			c12.482,23.339,36.112,53.285,80.244,75.903C76.564,418.242,22.477,361.738,18.828,292.092z M204.67,426.523h-18.487
			c-50.659-16.823-86.861-44.794-107.633-83.141c-12.973-23.961-15.58-44.794-16.091-51.29h34.177
			c0.852,5.293,5.544,29.425,23.64,57.967c14.747,23.249,41.064,53.135,86.46,75.712
			C206.053,426.022,205.361,426.272,204.67,426.523z M434.27,155.676c7.596,0.323,7.105,11.027,0.033,11.027
			c-3.038,0-5.514-2.466-5.514-5.514C428.789,158.163,431.247,155.695,434.27,155.676z M428.247,180.829
			c3.936,1.216,8.172,1.217,12.112,0h0.001l28.502,37.386h-69.115L428.247,180.829z M393.7,277.053h-6.683v-20.402h6.683V277.053z
			 M433.832,342.68c-14.256,26.648-44.553,62.749-108.014,83.843H307.34c-0.692-0.241-1.384-0.501-2.075-0.752
			c45.395-22.577,71.712-52.463,86.46-75.712c18.096-28.542,22.788-52.674,23.64-57.967h34.187
			C449.07,298.498,446.574,318.85,433.832,342.68z M408.738,277.053v-20.402h6.684v20.402H408.738z M430.46,277.053v-20.402h6.684
			v20.402H430.46z M458.865,277.053h-1.363h-5.32v-20.402h6.683V277.053z M480.587,277.053h-6.684v-20.402h6.684V277.053z
			 M492.781,241.613H375.153c-2.306,0-4.181-1.875-4.181-4.181s1.875-4.181,4.181-4.181h117.629c2.306,0,4.181,1.875,4.181,4.181
			C496.962,239.739,495.087,241.613,492.781,241.613z"/>
	</g>
</g>
<g>
</g>
<g>
</g>
<g>
</g>
<g>
</g>
<g>
</g>
<g>
</g>
<g>
</g>
<g>
</g>
<g>
</g>
<g>
</g>
<g>
</g>
<g>
</g>
<g>
</g>
<g>
</g>
<g>
</g>
</svg>
