<svg height="511pt" viewBox="-37 1 511 511.999" width="511pt" xmlns="http://www.w3.org/2000/svg"><path d="m419.980469 272.453125h-43.101563v-125.796875c3.742188-4.933594 6.265625-10.832031 7.140625-17.25h15.648438c9.742187 0 17.667969-7.925781 17.667969-17.671875v-57.714844c0-9.746093-7.925782-17.671875-17.667969-17.671875h-15.296875v-6.898437c0-9.742188-7.925782-17.671875-17.671875-17.671875h-36.824219c-2.433594-6.847656-8.964844-11.777344-16.640625-11.777344h-23.230469c-7.671875 0-14.203125 4.929688-16.636718 11.777344h-22.113282c-4.144531 0-7.5 3.359375-7.5 7.5 0 4.144531 3.355469 7.5 7.5 7.5h21.082032v119.546875h-106.691407v-119.546875h51.082031c4.144532 0 7.5-3.355469 7.5-7.5 0-4.140625-3.355468-7.5-7.5-7.5h-52.113281c-2.433593-6.847656-8.960937-11.777344-16.636719-11.777344h-23.230468c-7.675782 0-14.203125 4.929688-16.636719 11.777344h-36.828125c-9.742188 0-17.671875 7.929687-17.671875 17.671875v6.898437h-15.292969c-9.746094 0-17.671875 7.925782-17.671875 17.671875v57.714844c0 9.746094 7.925781 17.671875 17.671875 17.671875h15.644532c.875 6.417969 3.398437 12.316406 7.140624 17.25v77.082031c0 4.144531 3.355469 7.5 7.5 7.5 4.140626 0 7.5-3.355469 7.5-7.5v-65.355469c4.4375 1.890626 9.320313 2.941407 14.445313 2.941407h16.53125v22.253906c-8.242187 1.492187-14.519531 8.707031-14.519531 17.375v23.503906c0 8.664063 6.277344 15.878907 14.519531 17.371094v13.449219c0 16.148437 13.136719 29.285156 29.285156 29.285156 16.148438 0 29.285157-13.136719 29.285157-29.285156v-13.449219c8.242187-1.492187 14.519531-8.707031 14.519531-17.371094v-23.503906c0-8.667969-6.277344-15.882813-14.519531-17.375v-22.253906h106.6875v22.292969c-8.117188 1.59375-14.265626 8.757812-14.265626 17.335937v23.503906c0 8.578125 6.144532 15.742188 14.265626 17.332031v13.488282c0 16.148437 13.136718 29.285156 29.285156 29.285156 16.144531 0 29.285156-13.136719 29.285156-29.285156v-13.410156c8.367188-1.386719 14.773438-8.65625 14.773438-17.410157v-23.503906c0-8.753906-6.40625-16.023437-14.773438-17.410156v-22.214844h16.53125c5.121094 0 10.003906-1.050781 14.445312-2.945313v238.980469h-31.222656c-1.84375-14.386719-14.160156-25.546875-29.039062-25.546875s-27.195313 11.160156-29.039063 25.546875h-16.328125c-4.144531 0-7.5 3.359375-7.5 7.5 0 4.144531 3.355469 7.5 7.5 7.5h16.082032v22.046875h-106.691407v-22.046875h56.082031c4.144532 0 7.5-3.355469 7.5-7.5 0-4.140625-3.355468-7.5-7.5-7.5h-56.328124c-1.84375-14.386719-14.15625-25.546875-29.039063-25.546875-14.878906 0-27.195313 11.160156-29.035156 25.546875h-31.226563v-139.101562c0-4.144531-3.355468-7.5-7.5-7.5-4.140625 0-7.5 3.355469-7.5 7.5v14.191406h-43.097656c-9.648438 0-17.5 7.851563-17.5 17.5v30.441406c0 11.015625 6.421875 20.558594 15.722656 25.085938v45.066406c0 14.136719 8.035156 26.933594 20.609375 33.144531v61.769532c0 9.742187 7.925781 17.667968 17.667969 17.667968h54.945312c3.054688 5.292969 8.761719 8.871094 15.300782 8.871094h23.226562c6.539063 0 12.246094-3.578125 15.300782-8.871094h111.429687c3.054687 5.292969 8.761719 8.871094 15.300781 8.871094h23.226563c6.539062 0 12.246093-3.578125 15.300781-8.871094h54.945312c9.742188 0 17.671876-7.925781 17.671876-17.667968v-61.765626c12.582031-6.210937 20.609374-18.984374 20.609374-33.148437v-45.066406c9.296876-4.527344 15.722657-14.070313 15.722657-25.089844v-30.441406c0-9.644531-7.847657-17.496094-17.5-17.496094zm-254.8125-48c0 1.472656-1.199219 2.671875-2.671875 2.671875h-52.269532c-1.472656 0-2.671874-1.199219-2.671874-2.671875v-23.5c0-1.472656 1.199218-2.671875 2.671874-2.671875h52.269532c1.472656 0 2.671875 1.199219 2.671875 2.671875zm-40.421875-209.453125h23.230468c1.472657 0 2.667969 1.199219 2.667969 2.671875v165.609375h-28.566406v-165.609375c0-1.472656 1.195313-2.671875 2.667969-2.671875zm-89.101563 96.734375v-57.714844c0-1.472656 1.199219-2.671875 2.671875-2.671875h15.292969v63.058594h-15.292969c-1.472656 0-2.671875-1.199219-2.671875-2.671875zm54.902344 34.589844c-12.097656 0-21.9375-9.839844-21.9375-21.933594v-94.941406c0-1.472657 1.199219-2.671875 2.671875-2.671875h35.792969v119.546875zm45.816406 123.238281c-7.878906 0-14.285156-6.410156-14.285156-14.285156v-13.152344h28.566406v13.152344c0 7.875-6.40625 14.285156-14.28125 14.285156zm263.304688-218.214844c1.472656 0 2.667969 1.199219 2.667969 2.671875v57.714844c0 1.472656-1.195313 2.671875-2.667969 2.671875h-15.296875v-63.058594zm-68.988281 173.105469c0 1.472656-1.199219 2.671875-2.671876 2.671875h-52.269531c-1.472656 0-2.667969-1.199219-2.667969-2.671875v-23.5c0-1.472656 1.195313-2.671875 2.667969-2.671875h52.269531c1.472657 0 2.671876 1.199219 2.671876 2.671875zm-40.675782-209.453125h23.230469c1.472656 0 2.671875 1.199219 2.671875 2.671875v165.609375h-28.570312v-165.609375c0-1.472656 1.195312-2.671875 2.667968-2.671875zm11.617188 254.5625c-7.878906 0-14.285156-6.410156-14.285156-14.285156v-13.152344h28.570312v13.152344c0 7.875-6.410156 14.285156-14.285156 14.285156zm29.285156-123.238281v-119.546875h35.792969c1.472656 0 2.671875 1.199218 2.671875 2.671875v94.941406c0 12.09375-9.839844 21.933594-21.9375 21.933594zm-58.570312 303.082031v38.722656h-106.691407v-38.722656zm-256.835938-159.453125c0-1.378906 1.121094-2.5 2.5-2.5h43.101562v45.824219h-32.714843c-7.105469 0-12.886719-5.78125-12.886719-12.882813zm15.722656 58.324219h29.875v49.085937h-6.597656c-6.886719 0-12.847656 3.96875-15.761719 9.730469-4.695312-4.105469-7.515625-10.089844-7.515625-16.546875zm20.609375 137.183594v-70.429688c0-1.472656 1.199219-2.667969 2.667969-2.667969h52.578125v75.765625h-52.578125c-1.46875 0-2.667969-1.195312-2.667969-2.667968zm98.8125 8.867187c0 1.472656-1.195312 2.671875-2.667969 2.671875h-23.230468c-1.472656 0-2.667969-1.199219-2.667969-2.671875v-93.230469c0-7.875 6.40625-14.285156 14.285156-14.285156 7.875 0 14.285157 6.410156 14.285157 14.285156v93.230469zm165.261719 0c0 1.472656-1.199219 2.671875-2.671875 2.671875h-23.230469c-1.472656 0-2.667968-1.199219-2.667968-2.671875v-93.230469c0-7.875 6.40625-14.285156 14.285156-14.285156 7.875 0 14.285156 6.410156 14.285156 14.285156zm70.242188-8.867187c0 1.472656-1.195313 2.667968-2.667969 2.667968h-52.574219v-75.765625h52.574219c1.472656 0 2.667969 1.195313 2.667969 2.667969zm13.097656-78.367188c-2.914063-5.761719-8.878906-9.730469-15.765625-9.730469h-6.601563v-49.082031h29.878906v42.269531c0 6.464844-2.820312 12.441407-7.511718 16.542969zm23.234375-86.699219c0 7.105469-5.777344 12.886719-12.886719 12.886719h-32.714844v-45.828125h43.101563c1.378906 0 2.5 1.121094 2.5 2.5zm0 0"/><path d="m358.125 423.375h-.109375c-.011719 0-.023437 0-.035156 0-4.125 0-7.480469 3.335938-7.5 7.46875-.019531 4.140625 3.324219 7.515625 7.46875 7.53125h.109375.035156c4.125 0 7.480469-3.335938 7.5-7.464844.015625-4.144531-3.328125-7.515625-7.46875-7.535156zm0 0"/><path d="m80.035156 423.375h-.113281c-.011719 0-.019531 0-.03125 0-4.128906 0-7.480469 3.335938-7.5 7.46875-.019531 4.140625 3.324219 7.515625 7.464844 7.53125h.113281.03125c4.128906 0 7.480469-3.335938 7.5-7.464844.019531-4.144531-3.324219-7.515625-7.464844-7.535156zm0 0"/><path d="m259.960938 356c4.140624 0 7.5-3.359375 7.5-7.5v-10.054688h15.511718c4.144532 0 7.5-3.355468 7.5-7.5 0-4.140624-3.355468-7.5-7.5-7.5h-127.964844c-4.140624 0-7.5 3.359376-7.5 7.5 0 4.144532 3.359376 7.5 7.5 7.5h97.453126v10.054688c0 4.140625 3.355468 7.5 7.5 7.5zm0 0"/></svg>