<svg height="496pt" viewBox="0 0 496 496" width="496pt" xmlns="http://www.w3.org/2000/svg"><path d="m440 176h-440v24c0 13.230469 10.769531 24 24 24h26.175781c5.640625 31.535156 22.214844 59.441406 45.824219 79.550781v80.449219h-27.839844l-36.160156 45.191406v66.808594h432v-66.808594l-36.160156-45.191406h-27.839844v-80.457031c23.609375-20.109375 40.191406-48.015625 45.824219-79.542969h26.175781c13.230469 0 24-10.769531 24-24v-24zm-416 32c-4.414062 0-8-3.585938-8-8v-8h32v8c0 2.695312.214844 5.34375.375 8zm88 107.320312c5.105469 3.199219 10.457031 6.039063 16 8.550782v60.128906h-16zm49.519531 18.679688c2.320313 11.632812 6.921875 20.953125 11.761719 28.054688 5.871094 8.625 13.542969 16.015624 22.398438 21.945312h-51.679688v-54.015625c5.671875 1.734375 11.542969 3.023437 17.519531 4.015625zm61.3125-33.609375c-7.433593-14.679687-8.929687-27.933594-4.464843-39.398437 4.519531-11.617188 14.351562-19.585938 21.945312-24.289063 2.191406 19.96875 9.582031 26.863281 18.800781 33.359375 7.132813 5.035156 12.765625 9.007812 12.902344 33.984375l.054687 10.183594 9.882813-2.476563c16.925781-4.226562 28.085937-10.570312 35.191406-16.160156 5.574219 24.46875 2.664063 45.390625-8.625 61.046875-5.96875 8.269531-14.273437 14.886719-24.039062 19.566406 2.230469-4.960937 3.519531-10.421875 3.519531-16.207031 0-22.054688-17.945312-40-40-40s-40 17.945312-40 40c0 5.015625 1.03125 9.777344 2.726562 14.199219-9.824218-5.304688-18.3125-12.472657-24.222656-21.152344-10.75-15.789063-13.246094-35.4375-7.425781-57.382813 6.875 5.566407 17.800781 11.871094 34.683594 16.097657l16.972656 4.246093zm111.808594 33.585937c5.917969-.992187 11.734375-2.273437 17.359375-4v54.023438h-49.273438c7.289063-5 13.722657-10.976562 18.785157-17.992188 5.511719-7.640624 10.777343-18.199218 13.128906-32.03125zm-110.640625 26.023438c0-13.230469 10.769531-24 24-24s24 10.769531 24 24c0 13.097656-10.558594 23.742188-23.609375 23.960938-.636719-.007813-1.269531-.097657-1.910156-.113282-12.511719-.800781-22.480469-11.136718-22.480469-23.847656zm0 96c0-10.414062 6.710938-19.214844 16-22.527344v30.527344h16v-30.527344c9.289062 3.3125 16 12.113282 16 22.527344 0 13.230469-10.769531 24-24 24s-24-10.769531-24-24zm215.359375-32h-135.359375v16h144v40h-168.207031c5.078125-6.703125 8.207031-14.960938 8.207031-24 0-22.054688-17.945312-40-40-40s-40 17.945312-40 40c0 9.039062 3.128906 17.296875 8.207031 24h-168.207031v-40h144v-16h-135.359375l19.199219-24h344.320312zm-55.359375-40h-16v-60.136719c5.542969-2.511719 10.886719-5.359375 16-8.558593zm48-184c0 57.464844-40.710938 106.382812-96.121094 117.550781-.109375-11.574219-2.160156-24.847656-7.222656-40.078125l-5.511719-16.25-8.976562 14.730469c-.070313.117187-6.472657 10.261719-26.582031 17.429687-1.890626-22.292968-9.578126-29.574218-19.242188-36.398437-7.015625-4.945313-12.550781-8.847656-12.6875-33.03125l-.0625-11.417969-10.714844 3.960938c-1.246094.464844-30.789062 11.640625-41.359375 38.542968-4.375 11.160157-4.847656 23.167969-1.457031 35.882813-14.710938-6.632813-19.132812-14.3125-19.140625-14.3125l-8.035156-16.023437-6.558594 16.679687c-5.96875 15.175781-8.320313 28.574219-8.367187 40.253906-55.328126-11.214843-95.960938-60.09375-95.960938-117.519531v-8h368zm48-8v8c0 4.414062-3.585938 8-8 8h-24.375c.160156-2.65625.375-5.304688.375-8v-8zm0 0"/><path d="m480 0-141.222656 16.558594-15.722656 31.441406h-67.054688v-16h-216c-22.054688 0-40 17.945312-40 40s17.945312 40 40 40h216v-16h67.054688l15.722656 31.441406 140.285156 16.503906 16.9375.054688v-144zm-240 96h-200c-13.230469 0-24-10.769531-24-24s10.769531-24 24-24h200zm240 31.945312-130.777344-15.386718-16.277344-32.558594h-76.945312v-16h76.945312l16.277344-32.558594 130.777344-15.386718zm0 0"/><path d="m48 72c0 4.417969-3.582031 8-8 8s-8-3.582031-8-8 3.582031-8 8-8 8 3.582031 8 8zm0 0"/><path d="m366.667969 48.085938 96.003906-15.972657 2.625 15.78125-96.003906 15.972657zm0 0"/><path d="m366.683594 95.886719 2.628906-15.78125 96.003906 16-2.628906 15.785156zm0 0"/></svg>