<?xml version="1.0" encoding="iso-8859-1"?>
<!-- Generator: Adobe Illustrator 19.0.0, SVG Export Plug-In . SVG Version: 6.00 Build 0)  -->
<svg xmlns="http://www.w3.org/2000/svg" xmlns:xlink="http://www.w3.org/1999/xlink" version="1.1" id="Layer_1" x="0px" y="0px" viewBox="0 0 512 512" style="enable-background:new 0 0 512 512;" xml:space="preserve" width="512" height="512">
<g>
	<path d="M366.545,199.289c0-5.169-3.915-9.498-9.058-10.018l-144.212-14.586c-0.675-0.067-1.355-0.067-2.026,0L67.038,189.27   c-5.144,0.52-9.058,4.85-9.058,10.018v31.324c-0.794,31.269,7.375,56.608,23.626,73.287c13.137,13.483,31.272,20.909,51.066,20.909   c17.825,0,35.831-6.141,49.399-16.849c15.056-11.882,23.567-28.256,23.968-46.11c0.1-4.488,1.966-6.764,5.545-6.764   c0.663,0,6.49,0.19,6.643,6.775c0.416,17.851,8.953,34.224,24.04,46.103c13.593,10.704,31.626,16.843,49.473,16.845   c0.003,0,0.005,0,0.009,0c19.839,0,38.011-7.436,51.167-20.938c16.252-16.679,24.421-42.008,23.629-73.258V199.289z    M328.49,289.817c-9.333,9.578-22.38,14.853-36.741,14.853c-0.002,0-0.005,0-0.007,0c-25.186-0.003-52.757-16.55-53.38-43.274   c-0.394-17.179-14.091-26.449-26.777-26.449c-12.47,0-25.295,9.087-25.682,26.455c-0.598,26.726-28.098,43.269-53.23,43.269   c-14.314,0-27.326-5.264-36.64-14.823c-12.395-12.722-18.589-33.068-17.915-58.84c0.002-0.087,0.004-0.175,0.004-0.263v-22.351   l134.14-13.567l134.142,13.567v22.351c0,0.088,0,0.176,0.004,0.263C347.081,256.76,340.886,277.096,328.49,289.817z"/>
	<path d="M216.257,403.549c-18.642,0-33.808,15.17-33.808,33.817c0,18.663,15.166,33.846,33.808,33.846   c18.656,0,33.836-15.183,33.836-33.846C250.093,418.719,234.913,403.549,216.257,403.549z M216.257,451.073   c-7.535,0-13.666-6.148-13.666-13.707c0-7.542,6.131-13.678,13.666-13.678c7.55,0,13.693,6.136,13.693,13.678   C229.95,444.924,223.807,451.073,216.257,451.073z"/>
	<path d="M481.145,315.037c-5.562,0-10.071,4.508-10.071,10.069v54.689c0,20.259-9.079,24.164-24.05,28.022l-156.194,30.698   c0.006-0.384,0.029-0.764,0.029-1.149c0-7.577-1.143-14.891-3.252-21.786l152.979-30.621c4.707-0.942,8.094-5.075,8.094-9.874   V178.018h22.553l0.127,57.144c0.013,5.554,4.52,10.047,10.071,10.047c0.006,0,0.014,0,0.021,0   c5.562-0.012,10.061-4.531,10.049-10.092l-0.285-128.164l0.005-4.403c0.045-26.193-0.858-28.761-16.122-45.781l-39.507-44.18   c-15.689-17.56-35.887-14.551-48.014-4.325c-12.041,10.153-17.958,29.592-5.206,45.619l46.166,58.016v75.553h-24.534v-19.615   c0-5.169-3.915-9.499-9.059-10.019l-181.67-18.353c-0.674-0.067-1.352-0.067-2.024,0L29.609,157.816   c-5.144,0.52-9.059,4.85-9.059,10.019v62.363c-1.432,61.877,27.394,108.313,77.118,124.221c11.099,3.558,22.826,5.362,34.859,5.362   c29.788-0.001,58.806-11.103,79.648-30.105c20.851,19.011,49.896,30.118,79.727,30.118c11.916,0,23.539-1.766,34.548-5.25   c27.198-8.615,47.818-25.549,61.287-50.332c6.711-12.348,11.402-26.432,13.982-41.649h26.817v104.269L278.817,396.8   c-13.315-20.467-36.376-34.039-62.561-34.039c-41.121,0-74.575,33.468-74.575,74.605c0,41.153,33.454,74.634,74.575,74.634   c33.359,0,61.671-22.02,71.184-52.293l163.75-32.183c0.188-0.037,0.374-0.079,0.56-0.127c12.81-3.285,39.464-10.121,39.464-47.601   v-54.689C491.215,319.545,486.706,315.037,481.145,315.037z M448.679,157.879v-21.448h22.46l0.048,21.448H448.679z M398.131,41.342   c-5.876-7.386-1.236-14.591,2.431-17.683c2.396-2.021,10.922-7.822,20.011,2.35l39.529,44.204c6.29,7.013,8.881,9.972,9.87,12.825   c1.135,3.268,1.125,9.025,1.106,19.477l-0.005,4.46l0.021,9.317h-22.415v-7.912c0-2.277-0.771-4.487-2.19-6.27L398.131,41.342z    M320.37,335.344c-9.037,2.86-18.615,4.31-28.467,4.31c-27.954,0-54.946-11.579-72.202-30.973   c-1.911-2.148-4.649-3.376-7.523-3.376c-0.001,0-0.001,0-0.001,0c-2.874,0-5.612,1.228-7.523,3.375   c-17.253,19.387-44.217,30.961-72.126,30.962c-9.942,0-19.602-1.48-28.714-4.402c-58.774-18.804-63.724-79.473-63.125-104.685   c0.002-0.079,0.003-0.16,0.003-0.239v-53.377l171.569-17.336l171.599,17.336v53.377c0,0.077,0.001,0.155,0.003,0.232   C384.448,255.825,379.431,316.636,320.37,335.344z M403.851,242.423c0.183-4.023,0.245-8.096,0.152-12.222v-22.612h24.534v34.834   H403.851z M216.257,491.861c-30.016,0-54.433-24.446-54.433-54.495c0-30.033,24.417-54.466,54.433-54.466   c30.029,0,54.46,24.433,54.46,54.466C270.717,467.414,246.286,491.861,216.257,491.861z"/>
	<path d="M481.145,268.74c-5.562,0-10.071,4.508-10.071,10.07v0.286c0,5.561,4.51,10.069,10.071,10.069   c5.561,0,10.07-4.508,10.07-10.069v-0.286C491.215,273.248,486.706,268.74,481.145,268.74z"/>
</g>















</svg>
