<?xml version="1.0" encoding="iso-8859-1"?>
<!-- Generator: Adobe Illustrator 19.0.0, SVG Export Plug-In . SVG Version: 6.00 Build 0)  -->
<svg xmlns="http://www.w3.org/2000/svg" xmlns:xlink="http://www.w3.org/1999/xlink" version="1.1" id="Layer_1" x="0px" y="0px" viewBox="0 0 512 512" style="enable-background:new 0 0 512 512;" xml:space="preserve" width="512" height="512">
<g>
	<path d="M210,120v-15C210,47.103,162.897,0,105,0S0,47.103,0,105v302c0,57.897,47.103,105,105,105h407V120H210z M210,407V210h211   v212H208.924C209.628,417.099,210,412.093,210,407z M30,105c0-41.355,33.645-75,75-75s75,33.645,75,75v228.596   C160.927,314.113,134.354,302,105,302s-55.927,12.113-75,31.596V105z M30,407c0-41.355,33.645-75,75-75s75,33.645,75,75   s-33.645,75-75,75S30,448.355,30,407z M482,482H178.404c8.8-8.615,16.097-18.758,21.451-30H451V180H210v-30h272V482z"/>
	<path d="M105,362c-24.813,0-45,20.187-45,45s20.187,45,45,45s45-20.187,45-45S129.813,362,105,362z M105,422   c-8.271,0-15-6.729-15-15s6.729-15,15-15s15,6.729,15,15S113.271,422,105,422z"/>
	<rect x="361" y="241" width="30" height="30"/>
	<rect x="361" y="301" width="30" height="30"/>
	<rect x="361" y="361" width="30" height="30"/>
	<rect x="301" y="331" width="30" height="30"/>
	<rect x="301" y="271" width="30" height="30"/>
	<rect x="241" y="301" width="30" height="30"/>
</g>















</svg>
