<svg height="511pt" viewBox="-16 0 511 511.99896" width="511pt" xmlns="http://www.w3.org/2000/svg"><path d="m472.007812 497h-13.25l-78.859374-45.25c-3.59375-2.0625-8.179688-.820312-10.238282 2.773438-2.0625 3.589843-.820312 8.175781 2.773438 10.234374l56.183594 32.242188h-388.921876l38.632813-44.484375c2.714844-3.128906 2.378906-7.863281-.746094-10.582031-3.128906-2.714844-7.863281-2.382813-10.582031.746094l-47.171875 54.320312h-11.828125c-4.144531 0-7.5 3.355469-7.5 7.5 0 4.140625 3.355469 7.5 7.5 7.5h464.011719c4.140625 0 7.5-3.359375 7.5-7.5 0-4.144531-3.359375-7.5-7.503907-7.5zm0 0"/><path d="m76.453125 101.664062c9.886719 0 21.425781-2.75 33.144531-8.367187 4.933594-2.367187 9.554688-5.117187 13.753906-8.136719l10.289063 81.230469c.589844 4.652344 2.957031 8.800781 6.664063 11.671875 3.113281 2.414062 6.855468 3.6875 10.726562 3.6875.742188 0 1.492188-.046875 2.242188-.144531l3.484374-.4375 21.796876 172.058593c-22.414063 1.570313-44.070313 11.746094-59.617188 29.648438l-29.132812 33.546875c-2.714844 3.125-2.382813 7.863281.746093 10.578125 3.125 2.714844 7.863281 2.382812 10.582031-.742188l29.128907-33.546874c13.0625-15.042969 31.332031-23.488282 50.183593-24.585938l5.855469 46.242188-14.527343 1.839843c-4.109376.523438-7.019532 4.273438-6.496094 8.382813.480468 3.792968 3.707031 6.5625 7.429687 6.5625.316407 0 .632813-.023438.953125-.0625l14.527344-1.839844 1.148438 9.0625c-16.15625 3.570312-31.367188 11.761719-43.539063 24.289062-2.886719 2.972657-2.820313 7.722657.152344 10.605469 2.972656 2.890625 7.71875 2.816407 10.601562-.152343 22.902344-23.570313 58.8125-28.605469 87.328125-12.242188l23.566406 13.519531c1.179688.675781 2.460938.996094 3.726563.996094 2.597656 0 5.125-1.351563 6.511719-3.765625 2.0625-3.59375.820312-8.179688-2.773438-10.238281l-23.5625-13.523438c-14.726562-8.449219-31.078125-12.160156-47.140625-11.4375l-1.136719-9 14.527344-1.839843c4.105469-.519532 7.015625-4.273438 6.496094-8.382813s-4.277344-7.027344-8.382812-6.5l-14.527344 1.84375-5.527344-43.636719c8.507812 1.316406 16.882812 4.164063 24.691406 8.644532l121.0625 69.46875c1.175782.675781 2.460938.996093 3.726563.996093 2.597656 0 5.125-1.355469 6.511719-3.769531 2.0625-3.59375.820312-8.175781-2.773438-10.238281l-83.632812-47.988281 39.011718-189.621094 3.441406.707031c1.1875.246094 2.371094.363281 3.542969.363281 8.160157 0 15.492188-5.730468 17.199219-14.027344l27.265625-132.519531c3.175781-15.433593-6.796875-30.570312-22.230469-33.746093-14.871094-3.0625-29.476562 6.097656-33.355468 20.585937-9.59375-3.238281-21.484376-4.265625-33.921876-2.789063-12.929687 1.535157-24.890624 5.628907-33.679687 11.523438-10.273437 6.898438-15.347656 15.632812-14.28125 24.597656 1.0625 8.960938 8.039063 16.265625 19.640625 20.5625 7.089844 2.625 15.53125 3.980469 24.488281 3.980469 3.585938 0 7.257813-.21875 10.953125-.65625 5.4375-.644531 10.695313-1.753906 15.644532-3.253906l-6.484376 31.507812c-.832031 4.058594 1.777344 8.023438 5.835938 8.859375 4.066406.839844 8.023438-1.777344 8.855469-5.835937l.902343-4.382813 26.59375 5.472656-10.917968 53.070313c-.1875.90625-.773438 1.40625-1.101563 1.625-.332031.21875-1.019531.554687-1.929687.371094l-21.566406-4.4375c-1.386719-.285157-2.28125-1.648438-1.996094-3.03125l3.035156-14.75c.832031-4.058594-1.777344-8.023438-5.835938-8.859375-4.0625-.839844-8.019531 1.777344-8.855468 5.835937l-3.035156 14.75c-1.953126 9.488281 4.175781 18.792969 13.664062 20.746094l3.4375.707031-38.015625 184.785156-23.734375-13.621093c-10.742188-6.164063-22.363281-9.773438-34.105469-10.996094l-22.070312-174.203125 3.484375-.441406c9.605468-1.21875 16.433594-10.023438 15.21875-19.632813l-17.007813-134.222656c-1.980469-15.632813-16.304687-26.734375-31.941406-24.757813-15.070313 1.910157-25.925781 15.300782-24.914063 30.261719-10.128906.035157-21.730468 2.910157-33.003906 8.316407-26.675781 12.789062-41.171875 34.144531-33.726562 49.675781 4.175781 8.707031 14.097656 13.183593 26.707031 13.183593zm253.996094-69.855468c7.332031 1.507812 12.066406 8.699218 10.5625 16.03125l-7.96875 38.734375-26.59375-5.472657 7.964843-38.730468c1.511719-7.332032 8.699219-12.066406 16.035157-10.5625zm-58.902344 48.21875c-10.460937 1.238281-20.832031.332031-28.457031-2.492188-5.796875-2.148437-9.613282-5.316406-9.964844-8.269531-.347656-2.957031 2.621094-6.929687 7.75-10.371094 6.75-4.535156 16.625-7.84375 27.085938-9.085937 10.96875-1.300782 21.464843-.28125 29.050781 2.714844l-4.484375 21.792968c-6.082032 2.824219-13.28125 4.796875-20.980469 5.710938zm29.546875 27.097656 2.328125-11.332031 26.59375 5.46875-2.332031 11.332031zm-134.332031-14.664062-26.9375 3.410156-1.453125-11.476563 26.9375-3.414062zm6.472656 71.496093-21.847656 2.769531c-.914063.117188-1.578125-.273437-1.890625-.515624-.316406-.242188-.859375-.789063-.976563-1.707032l-6.808593-53.75 26.933593-3.414062 6.8125 53.753906c.175781 1.398438-.820312 2.6875-2.222656 2.863281zm-29.957031-148.847656c.578125-.074219 1.160156-.109375 1.734375-.109375 2.992187 0 5.882812.984375 8.289062 2.847656 2.867188 2.222656 4.695313 5.425782 5.152344 9.023438l4.96875 39.230468-26.9375 3.414063-4.96875-39.230469c-.9375-7.425781 4.335937-14.234375 11.761719-15.175781zm-53.324219 37.222656c9.941406-4.769531 20.21875-7.199219 28.371094-6.816406l2.796875 22.074219c-4.84375 4.632812-11.023438 8.828125-18.011719 12.179687-20.300781 9.730469-37.15625 7.820313-39.835937 2.226563-2.679688-5.59375 6.378906-19.933594 26.679687-29.664063zm0 0"/></svg>