<?xml version="1.0" encoding="iso-8859-1"?>
<!-- Generator: Adobe Illustrator 19.0.0, SVG Export Plug-In . SVG Version: 6.00 Build 0)  -->
<svg xmlns="http://www.w3.org/2000/svg" xmlns:xlink="http://www.w3.org/1999/xlink" version="1.1" id="Layer_1" x="0px" y="0px" viewBox="0 0 512 512" style="enable-background:new 0 0 512 512;" xml:space="preserve" width="512" height="512">
<g>
	<path d="M462,161c5.52,0,10-4.48,10-10s-4.48-10-10-10s-10,4.48-10,10S456.48,161,462,161z"/>
	<path d="M193,161c5.52,0,10-4.48,10-10s-4.48-10-10-10s-10,4.48-10,10S187.48,161,193,161z"/>
	<path d="M238.892,74.607c-4.219-1.275-8.778,0.363-11.219,4.035C213.878,99.388,191.14,101,184.5,101   c-23.757,0-51.5-10.476-51.5-40c0-5.522-4.477-10-10-10s-10,4.478-10,10c0,29.524-27.743,40-51.5,40   c-27.857,0-42.575-21.467-43.198-22.396c-2.454-3.652-7.005-5.272-11.216-3.991C2.876,75.896,0,79.779,0,84.18V141   c0,100.851,29.262,195.333,73.166,237.469C75.198,425.816,96.222,461,123,461c26.781,0,47.807-35.193,49.834-82.531   C216.738,336.333,246,241.851,246,141V84.18C246,79.771,243.113,75.882,238.892,74.607z M40.655,280.527   C27.143,238.912,20,190.664,20,141v-33.154C29.873,114.768,43.703,121,61.5,121c21.224,0,38.986-5.943,51.5-16.312v177.975   c-24.069,8.157-35.376,41.769-38.633,66.9C61.365,332.168,49.72,308.445,40.655,280.527z M123,441   c-13.597,0-29.25-27.599-29.972-67.222C92.295,337.306,106.509,301,123,301c20.372,0,30.504,46.459,29.972,72.798   C152.25,413.401,136.597,441,123,441z M226,141c0,49.664-7.143,97.912-20.655,139.527c-9.065,27.918-20.711,51.641-33.712,69.036   c-3.256-25.12-14.559-58.742-38.633-66.9V104.688C145.514,115.057,163.276,121,184.5,121c6.588,0,24.68-1.169,41.5-12.641V141z"/>
	<path d="M191.633,180.975c-5.498-0.521-10.377,3.513-10.899,9.012c-2.681,28.298-7.662,54.578-14.803,78.109   c-1.604,5.285,1.38,10.869,6.665,12.474c5.285,1.605,10.869-1.382,12.473-6.665c7.529-24.808,12.77-52.406,15.577-82.031   C201.167,186.375,197.131,181.495,191.633,180.975z"/>
	<path d="M123,341c-5.523,0-10,4.478-10,10v40c0,5.522,4.477,10,10,10s10-4.478,10-10v-40C133,345.478,128.523,341,123,341z"/>
	<path d="M504.892,74.607c-4.218-1.275-8.778,0.363-11.219,4.035C479.878,99.388,457.14,101,450.5,101   c-23.757,0-51.5-10.476-51.5-40c0-5.522-4.477-10-10-10s-10,4.478-10,10c0,29.524-27.743,40-51.5,40   c-27.857,0-42.575-21.467-43.198-22.396c-2.453-3.652-7.005-5.272-11.216-3.991C268.876,75.896,266,79.779,266,84.18V141   c0,100.851,29.262,195.333,73.166,237.469C341.198,425.816,362.222,461,389,461c26.781,0,47.807-35.193,49.834-82.531   C482.738,336.333,512,241.851,512,141V84.18C512,79.771,509.113,75.882,504.892,74.607z M306.655,280.527   C293.143,238.912,286,190.664,286,141v-33.154c9.873,6.922,23.703,13.154,41.5,13.154c21.224,0,38.986-5.943,51.5-16.312v177.975   c-24.069,8.157-35.376,41.769-38.633,66.9C327.365,332.168,315.72,308.445,306.655,280.527z M389,441   c-13.597,0-29.25-27.599-29.972-67.222C358.295,337.306,372.509,301,389,301c20.372,0,30.504,46.459,29.972,72.798   C418.25,413.401,402.597,441,389,441z M492,141c0,49.664-7.143,97.912-20.655,139.527c-9.065,27.918-20.711,51.641-33.712,69.036   c-3.256-25.12-14.559-58.742-38.633-66.9V104.688C411.514,115.057,429.276,121,450.5,121c6.588,0,24.68-1.169,41.5-12.641V141z"/>
	<path d="M460.633,180.975c-5.493-0.521-10.378,3.513-10.899,9.012c-2.681,28.298-7.662,54.578-14.803,78.109   c-1.604,5.285,1.38,10.869,6.665,12.474c5.285,1.605,10.869-1.382,12.473-6.665c7.529-24.808,12.77-52.406,15.577-82.031   C470.167,186.375,466.131,181.495,460.633,180.975z"/>
	<path d="M389,341c-5.523,0-10,4.478-10,10v40c0,5.522,4.477,10,10,10s10-4.478,10-10v-40C399,345.478,394.523,341,389,341z"/>
</g>















</svg>
